<?xml version="1.0" ?>

<!-- Uploaded to: SVG Repo, www.svgrepo.com, Generator: SVG Repo Mixer Tools -->
<svg fill="#000000" width="800px" height="800px" viewBox="0 0 512 512" version="1.1" xml:space="preserve" xmlns="http://www.w3.org/2000/svg" xmlns:xlink="http://www.w3.org/1999/xlink">

<g id="Sickle">

<g id="XMLID_556_">

<path d="M29.913,435.535c-17.355,17.356-17.355,45.595,0,62.95c17.355,17.355,45.594,17.354,62.948,0    l70.14-70.139l-62.949-62.949L29.913,435.535z" id="XMLID_557_"/>

<path d="M262.505,49.494c-54.925,54.924-65.041,139.515-24.6,205.709c2.449,4.007,1.834,9.171-1.486,12.491    l-63.99,63.99l24.284,24.284l84.697-84.696c-3.644-9.664-9.869-29.051-12.161-53.658c-4.331-46.52,7.61-89.723,34.534-124.939    c25.621-33.512,64.924-54.021,110.67-57.75c26.7-2.175,54.579,1.528,80.649,10.378C429.492-15.801,326.402-14.403,262.505,49.494z    " id="XMLID_558_"/>

<polygon id="XMLID_559_" points="150.859,338.874 138.717,326.731 114.432,351.016 177.382,413.965 201.666,389.681     189.523,377.538   "/>

</g>

</g>

<g id="Layer_1"/>

</svg>