<?xml version="1.0" encoding="iso-8859-1"?>
<!-- Uploaded to: SVG Repo, www.svgrepo.com, Generator: SVG Repo Mixer Tools -->
<svg fill="#000000" height="800px" width="800px" version="1.1" id="Capa_1" xmlns="http://www.w3.org/2000/svg" xmlns:xlink="http://www.w3.org/1999/xlink" 
	 viewBox="0 0 490 490" xml:space="preserve">
<g>
	<g>
		<g>
			<path d="M344.4,111.3c20.8-25,33.3-57.2,33.3-90.5c0-11.4-9.4-20.8-20.8-20.8H133.2c-11.4,0-20.8,9.4-20.8,20.8
				c0,33.3,11.4,65.5,33.3,90.5C77,151.9,33.3,233,33.3,322.5C33.3,472.3,154,490,244.5,490s211.2-17.7,212.2-167.5
				C456.7,234.1,413,152.9,344.4,111.3z M244.5,448.4c-120.7,0-170.6-36.4-170.6-125.9c0-79.1,40.6-150.8,104-182.1
				c8.3-4.2,14.6-12.5,15.6-21.8c1-9.4-2.1-19.8-9.4-26c-14.6-13.5-25-31.2-29.1-51h178.9c-4.2,19.8-14.6,37.5-29.1,51
				c-7.3,6.2-10.4,16.6-9.4,26c1,9.4,7.3,17.7,15.6,21.8c63.5,31.2,104,103,104,182.1C415.1,412,365.2,448.4,244.5,448.4z"/>
		</g>
		<path d="M297.4,319.5c0-28.9-23.5-52.4-52.4-52.4c-11.4,0-20.7-9.3-20.7-20.7s9.3-20.7,20.7-20.7c5.8,0,11.1,2.3,15.1,6.5
			c6,6.4,16.1,6.7,22.4,0.7c6.4-6,6.7-16.1,0.7-22.4c-6.1-6.5-13.9-11.3-22.3-14v-9.2c0-8.8-7.1-15.9-15.9-15.9
			c-8.8,0-15.9,7.1-15.9,15.9v9.2c-21.2,6.7-36.5,26.6-36.5,50c0,28.9,23.5,52.4,52.4,52.4c11.4,0,20.7,9.3,20.7,20.7
			s-9.3,20.7-20.7,20.7c-5.8,0-11.1-2.3-15.1-6.5c-6-6.4-16.1-6.7-22.4-0.7c-6.4,6-6.7,16.1-0.7,22.4c6.1,6.5,13.9,11.3,22.3,14v9.2
			c0,8.8,7.1,15.9,15.9,15.9s15.9-7.1,15.9-15.9v-9.2C282,362.7,297.4,342.8,297.4,319.5z"/>
	</g>
</g>
</svg>