<?xml version="1.0" encoding="iso-8859-1"?>
<!-- Uploaded to: SVG Repo, www.svgrepo.com, Generator: SVG Repo Mixer Tools -->
<svg fill="#000000" height="800px" width="800px" version="1.1" id="Layer_1" xmlns="http://www.w3.org/2000/svg" xmlns:xlink="http://www.w3.org/1999/xlink" 
	 viewBox="0 0 512 512" xml:space="preserve">
<g>
	<g>
		<path d="M389.565,0c-77.609,0-135.433,0-200.348,0C180,0,172.522,7.473,172.522,16.696c0,9.223,7.479,16.696,16.696,16.696h50.087
			v36.468c-19.391,6.914-33.391,25.273-33.391,47.01v66.783c0,27.619,22.468,50.087,50.087,50.087h66.783
			c27.619,0,50.087-22.468,50.087-50.087V116.87c0-21.737-14-40.096-33.391-47.01V33.391h50.087c9.217,0,16.696-7.473,16.696-16.696
			C406.261,7.473,398.782,0,389.565,0z M306.087,66.783h-33.391V33.391h33.391V66.783z"/>
	</g>
</g>
<g>
	<g>
		<path d="M489.739,33.391c-9.217,0-16.696,7.473-16.696,16.696v50.087h-66.783v100.174h66.783v50.087
			c0,9.223,7.479,16.696,16.696,16.696s16.696-7.473,16.696-16.696c0-77.609,0-135.433,0-200.348
			C506.435,40.864,498.956,33.391,489.739,33.391z"/>
	</g>
</g>
<g>
	<g>
		<path d="M102.098,310.983c-6.327-7.946-19.782-7.946-26.109,0C23.538,376.767,5.565,391.384,5.565,428.522
			C5.565,474.554,43.011,512,89.044,512c46.032,0,83.478-37.446,83.478-83.478C172.522,392.165,156.831,379.631,102.098,310.983z"/>
	</g>
</g>
<g>
	<g>
		<path d="M89.044,100.174c-27.619,0-50.087,22.468-50.087,50.087v100.174c0,9.223,7.479,16.696,16.696,16.696h66.783
			c9.217,0,16.696-7.473,16.696-16.696v-50.087h33.391V100.174H89.044z"/>
	</g>
</g>
</svg>